<?xml version="1.0" ?>
<svg class="CategoryIcon-module_categoryIcon__aWkl0" viewBox="0 0 2560 2560"
    xmlns="http://www.w3.org/2000/svg">
    <g>
        <path
            d="M704 2483 c30 -99 34 -237 11 -328 -30 -115 -56 -156 -180 -281 -184 -186 -209 -262 -166 -514 11 -69 28 -172 36 -230 37 -249 83 -408 168 -575 41 -81 66 -116 131 -181 90 -91 149 -125 264 -156 67 -17 108 -20 312 -20 204 0 245 3 312 20 115 31 174 65 264 156 155 156 243 384 304 786 11 74 27 176 35 225 20 119 19 181 -3 253 -24 77 -65 135 -177 252 -177 186 -264 300 -291 383 -23 72 -29 76 -64 42 -75 -72 -107 -179 -95 -321 6 -80 7 -81 47 -112 98 -75 180 -226 198 -364 11 -82 10 -92 -13 -175 -14 -48 -37 -133 -51 -188 -45 -177 -106 -296 -208 -406 -38 -42 -54 -50 -143 -78 -107 -34 -144 -38 -149 -18 -41 132 -70 207 -131 333 -80 165 -135 240 -282 390 l-90 91 9 69 c16 120 104 276 196 346 39 30 40 33 47 107 15 176 -46 314 -204 454 -64 58 -97 72 -87 40z">
        </path>
    </g>
</svg></svg>